<svg xmlns="http://www.w3.org/2000/svg" viewBox="0 0 64 64" role="img" aria-label="80s tuna">
  <defs>
    <linearGradient id="neon" x1="0" y1="0" x2="1" y2="1">
      <stop offset="0%" stop-color="#ff6bd6"/>
      <stop offset="55%" stop-color="#7c3aed"/>
      <stop offset="100%" stop-color="#00f5d4"/>
    </linearGradient>
    <linearGradient id="sunset" x1="0" y1="0" x2="1" y2="0">
      <stop offset="0%" stop-color="#ff9e00"/>
      <stop offset="100%" stop-color="#ff3d81"/>
    </linearGradient>
    <filter id="glow" x="-50%" y="-50%" width="200%" height="200%">
      <feGaussianBlur stdDeviation="2.2" result="blur"/>
      <feMerge>
        <feMergeNode in="blur"/>
        <feMergeNode in="SourceGraphic"/>
      </feMerge>
    </filter>
  </defs>

  <g opacity="0.4">
    <path d="M6 50h52" stroke="#1f2a44" stroke-width="2"/>
    <path d="M10 42h44" stroke="#1b2540" stroke-width="2"/>
  </g>

  <circle cx="45" cy="16" r="9" fill="url(#sunset)"/>

  <g filter="url(#glow)">
    <path d="M10 34c8-12 28-16 40-6-4 8-18 16-40 6z" fill="url(#neon)"/>
    <path d="M10 34c8-12 28-16 40-6" fill="none" stroke="#ffd6ff" stroke-width="1.5"/>
    <path d="M10 34c9 6 22 8 40 6" fill="none" stroke="#7df9ff" stroke-width="1.2"/>
    <path d="M40 28l8-6-2 9z" fill="#00f5d4"/>
    <circle cx="22" cy="30" r="2" fill="#0b1020"/>
    <circle cx="22" cy="30" r="1" fill="#ffffff"/>
    <path d="M28 36c4 2 10 2 14-1" fill="none" stroke="#0b1020" stroke-width="1.5"/>
  </g>
</svg>
